<?xml version="1.0" encoding="utf-8"?>
<!-- Generator: Adobe Illustrator 25.1.0, SVG Export Plug-In . SVG Version: 6.00 Build 0)  -->
<svg version="1.1" xmlns="http://www.w3.org/2000/svg" xmlns:xlink="http://www.w3.org/1999/xlink" x="0px" y="0px"
	 viewBox="0 0 595.28 841.89" style="enable-background:new 0 0 595.28 841.89;" xml:space="preserve">
<style type="text/css">
	.st0{fill-rule:evenodd;clip-rule:evenodd;}
	.st1{fill-rule:evenodd;clip-rule:evenodd;fill:#CD632C;}
	.st2{fill-rule:evenodd;clip-rule:evenodd;fill:#82277A;}
	.st3{fill-rule:evenodd;clip-rule:evenodd;fill:#E4097D;}
	.st4{fill-rule:evenodd;clip-rule:evenodd;fill:#636AB0;}
	.st5{fill-rule:evenodd;clip-rule:evenodd;fill:#4B1C56;}
	.st6{fill-rule:evenodd;clip-rule:evenodd;fill:#B6202A;}
	.st7{fill-rule:evenodd;clip-rule:evenodd;fill:#E21E26;}
	.st8{fill-rule:evenodd;clip-rule:evenodd;fill:#EB6724;}
	.st9{fill-rule:evenodd;clip-rule:evenodd;fill:#53AE47;}
	.st10{fill-rule:evenodd;clip-rule:evenodd;fill:#608D3E;}
	.st11{fill-rule:evenodd;clip-rule:evenodd;fill:#006992;}
	.st12{fill-rule:evenodd;clip-rule:evenodd;fill:#009CB4;}
	.st13{fill-rule:evenodd;clip-rule:evenodd;fill:#F9BA20;}
	.st14{fill-rule:evenodd;clip-rule:evenodd;fill:#E18F28;}
	.st15{fill-rule:evenodd;clip-rule:evenodd;fill:#FFFFFF;}
	.st16{fill:#FFFFFF;}
</style>
<g id="Layer_2">
</g>
<g id="Layer_1">
	<g id="Group_590_2_" transform="translate(-7918 -5899)">
		<path id="Path_688_2_" class="st0" d="M8113.16,6362.05h-9.54l-0.02,27.25l-10.36,7.69v-34.94l-9.36-0.01l0.02,39.2h8.56
			l11.13-8.18v8.18h9.57L8113.16,6362.05z"/>
		<path id="Path_689_2_" class="st0" d="M8138.07,6362.05h-9.52v39.19h20.09v-2.61h-10.57V6362.05z"/>
		<path id="Path_690_2_" class="st0" d="M8068.56,6401.23h-9.63l-0.02-42.2l-10.36,7.6v34.59h-9.3v-42.26l-10.34,7.67v34.59h-9.65
			v-47.8h9.65v8.7l11.75-8.72l7.89,0.01v8.79l11.88-8.81h8.14L8068.56,6401.23z"/>
		<rect id="Rectangle_1192_2_" x="8188" y="6362.05" width="9.53" height="39.19"/>
		<path id="Path_691_2_" class="st0" d="M8148.29,6362.03l31.2,0.01v2.62h-10.83v36.57h-9.54l0.02-36.57h-10.85L8148.29,6362.03z"/>
		<path id="Path_692_2_" class="st0" d="M8212.93,6359.79c0-3.97,4.37-6.36,8.88-6.36h14.68v8.62h-3.75v-5.24h-10.31v41.04
			c0,0,2.31-0.01,4.5,0c2.95,0.09,5.47-2.1,5.8-5.03c0,0-0.01-2.73,0-2.72l3.74,0.04v2.7c0,4.43-4.56,8.41-9.52,8.41h-14.05v-41.46
			H8212.93z"/>
		<path id="Path_693_2_" class="st0" d="M8247.04,6362.05h9.52v17.47l10.35-7.8l0.04-9.67h9.62v39.19h-9.62v-25.68l-10.38,7.67
			v18.02h-9.52L8247.04,6362.05z"/>
		<rect id="Rectangle_1193_2_" x="8336.54" y="6362.05" width="9.52" height="39.19"/>
		<path id="Path_694_2_" class="st0" d="M8370.9,6364.66v33.95l2.77-0.01c2.79,0.01,5-1.68,5-3.79v-3.21h3.39v3.21
			c0.01,3.79-4.07,6.42-8.44,6.42h-12.24v-34.36c0-2.75,3.83-4.84,6-4.84h14.68v7.4h-3.39v-4.78h-7.76L8370.9,6364.66z"/>
		<path id="Path_695_2_" class="st0" d="M8393.7,6362.05h20.13v2.62h-10.6v12.78h8.44v2.59h-8.44v18.6h10.6v2.62h-20.13V6362.05z"/>
		<path id="Path_696_2_" class="st0" d="M8301.28,6364.66h10.38v33.95h-10.38V6364.66z M8314.54,6362.03h-16.01
			c-3.58,0-6.64,2.18-6.64,4.97v29.13c0,2.49,2.66,5.11,6.64,5.11h16.32c2.89,0,6.34-2.39,6.34-5.13v-29.1
			C8321.19,6364.36,8318.12,6362.03,8314.54,6362.03"/>
		<path id="Path_697_2_" class="st1" d="M8214.54,6200.38l-28.97,30.68l28.97,111.02V6200.38z"/>
		<path id="Path_698_2_" class="st2" d="M8071.74,6230.75l4.75,36.2l132.6,75.44L8071.74,6230.75z"/>
		<path id="Path_699_2_" class="st3" d="M8209.08,6342.38l-88.56-96.9l-48.78-14.73L8209.08,6342.38z"/>
		<path id="Path_700_2_" class="st4" d="M8204.42,6342.91l-135.44-73.19l-51.54,1.24L8204.42,6342.91z"/>
		<path id="Path_701_2_" class="st5" d="M8017.45,6270.95l12.88,27.3l174.1,44.65L8017.45,6270.95z"/>
		<path id="Path_702_2_" class="st6" d="M8140.47,6208.06l-11.66,34.96l83.27,99.15L8140.47,6208.06z"/>
		<path id="Path_703_2_" class="st7" d="M8212.08,6342.16l-35.74-109.87l-35.87-24.23L8212.08,6342.16z"/>
		<path id="Path_704_2_" class="st8" d="M8214.53,6200.38l28.71,30.68l-28.71,111.02V6200.38z"/>
		<path id="Path_705_2_" class="st9" d="M8356.43,6230.75l-4.28,36.2l-132.08,75.43L8356.43,6230.75z"/>
		<path id="Path_706_2_" class="st10" d="M8220.06,6342.38l87.6-96.91l48.77-14.73L8220.06,6342.38z"/>
		<path id="Path_707_2_" class="st11" d="M8224.73,6342.91l136.04-73.19l52.19,0.91L8224.73,6342.91z"/>
		<path id="Path_708_2_" class="st12" d="M8412.96,6270.63l-13.54,27.63l-174.69,44.65L8412.96,6270.63z"/>
		<path id="Path_709_2_" class="st13" d="M8287.42,6208.06l11.33,34.96l-81.7,99.15L8287.42,6208.06z"/>
		<path id="Path_710_2_" class="st14" d="M8217.06,6342.16l35.67-109.86l34.69-24.24L8217.06,6342.16z"/>
		<path id="Path_711_2_" class="st0" d="M8087.79,6419.98v19.28h6.88v-2.23h-4.32v-6.54h3.86v-2.23h-3.86v-6.06h4.32v-2.21
			L8087.79,6419.98z"/>
		<path id="Path_712_2_" class="st0" d="M8107.62,6424.45l0.06-0.05l4.5,14.85h2.37v-19.27h-2.54v6.88l0.6,7.72l-0.05,0.05
			l-4.49-14.64h-2.46v19.28h2.55v-7.08l-0.39-6.46L8107.62,6424.45z"/>
		<path id="Path_713_2_" class="st0" d="M8129.16,6428.53v-6.37h0.41c1.94-0.05,2.17,1.48,2.17,3.32
			C8131.74,6427.43,8131.08,6428.65,8129.16,6428.53 M8126.61,6439.27h2.56v-9.43h0.04l3.48,9.43h2.66l-3.54-9.38
			c2.12-0.39,2.66-3.14,2.66-4.96c0-4.84-2.92-4.94-4.78-4.94h-3.06V6439.27z"/>
		<path id="Path_714_2_" class="st0" d="M8168.25,6420.28c-0.67-0.4-1.45-0.6-2.23-0.56c-5.24,0-5.72,6.35-5.72,10.21
			c0,4.03,0.7,9.58,5.91,9.58c0.72,0.03,1.44-0.16,2.05-0.54v-2.24c-0.48,0.25-1.01,0.38-1.55,0.38c-3.49,0-3.71-4.81-3.71-7.35
			c0-2.42,0.02-7.63,3.61-7.63c0.58,0.03,1.14,0.2,1.64,0.49L8168.25,6420.28L8168.25,6420.28z"/>
		<path id="Path_715_2_" class="st0" d="M8179.16,6419.98v19.28h2.55v-9.54h3.86v9.54h2.56v-19.28h-2.56v7.51h-3.86v-7.51H8179.16z"
			/>
		<path id="Path_716_2_" class="st0" d="M8216.81,6424.45l0.05-0.05l4.51,14.85h2.38v-19.27h-2.55v6.88l0.61,7.72l-0.06,0.05
			l-4.48-14.64h-2.46v19.28h2.54v-7.08l-0.39-6.46L8216.81,6424.45z"/>
		<path id="Path_717_2_" class="st0" d="M8240.33,6429.08v2.23h2.14v1.05c0,4.6-1.15,4.75-2.21,4.75c-1.13,0-2.25-0.76-2.25-7.46
			c0-4.65,0.15-7.51,2.25-7.51c1.58,0,1.94,1.25,2.21,2.53l2.44-0.99c-0.25-2.37-2.33-4.11-4.71-3.95c-4.45,0-4.87,4.55-4.87,9.94
			c0,5.45,0.54,9.84,5.11,9.84c5.13,0,4.6-6.44,4.6-10.12v-0.31H8240.33z"/>
		<path id="Path_718_2_" class="st0" d="M8270.68,6419.98v19.28h6.86v-2.23h-4.31v-17.05L8270.68,6419.98z"/>
		<path id="Path_719_2_" class="st0" d="M8290.49,6439.33v-19.35h-2.55v19.28L8290.49,6439.33z"/>
		<path id="Path_720_2_" class="st0" d="M8202.96,6439.33v-19.35h-2.54v19.28L8202.96,6439.33z"/>
		<path id="Path_721_2_" class="st0" d="M8148.05,6439.33v-19.35h-2.55v19.28L8148.05,6439.33z"/>
		<path id="Path_722_2_" class="st0" d="M8301.31,6419.98l3.73,19.28h2.04l3.78-19.28h-2.44l-1.17,6.8l-1.03,6.49l-0.13,1.2h-0.06
			l-2.19-14.49H8301.31z"/>
		<path id="Path_723_2_" class="st0" d="M8321.53,6419.98v19.28h6.86v-2.23h-4.31v-6.54h3.86v-2.23h-3.86v-6.06h4.31v-2.21
			L8321.53,6419.98z"/>
		<path id="Path_724_2_" class="st0" d="M8345.27,6420.36c-0.83-0.45-1.76-0.67-2.71-0.64c-2.41,0-4.36,1.95-4.36,4.35
			c0,0.19,0.01,0.39,0.04,0.58c0,5.06,5.4,5.82,5.4,9.66c0,1.44-0.66,2.69-2.25,2.69c-0.93-0.05-1.82-0.4-2.53-1v2.58
			c0.81,0.62,1.8,0.95,2.82,0.93c2.55-0.05,4.59-2.16,4.54-4.71c0-0.11-0.01-0.22-0.02-0.32c0.01-2.21-1.01-4.29-2.74-5.65
			l-1.94-2.12c-0.49-0.58-0.75-1.33-0.73-2.09c-0.09-1.28,0.88-2.39,2.15-2.47c0.04,0,0.08,0,0.13,0c0.79,0.02,1.56,0.31,2.17,0.83
			L8345.27,6420.36z"/>
	</g>
</g>
</svg>
